<?xml version="1.0" encoding="UTF-8"?>
<svg xmlns="http://www.w3.org/2000/svg" onmouseup="{ if(window.parent.document.onmouseup) window.parent.document.onmouseup(arguments[0]);}" viewBox="0 0 36 36" height="36" width="36"><defs><style>
      .fill {
        fill: #6e6e6e;
      }
    </style></defs><title/><g data-name="Layer 1" id="Layer_1"><path data-cppathid="10000" d="M19.202,30.62488A13.86413,13.86413,0,0,1,5.28125,25.93066a11.71323,11.71323,0,0,1,5.80127-2.62646c1.42822-.12427,1.45068-1.27246,1.45068-2.7041a13.02758,13.02758,0,0,1-3.06054-7.76416C9.47266,8.13452,12.148,5,16,5s6.52747,3.13452,6.52747,7.83594a13.02756,13.02756,0,0,1-3.06055,7.76416c0,1.43164.02246,2.57983,1.45068,2.7041A11.16325,11.16325,0,0,1,25,24.73535V22.5A3.50393,3.50393,0,0,1,28.5,19h1a3.46653,3.46653,0,0,1,2.23535.82947A16.02027,16.02027,0,1,0,20.48364,32.3512,3.4998,3.4998,0,0,1,19.202,30.62488Z" class="fill"/><path data-cppathid="10001" d="M28.5,22a.49967.49967,0,0,0-.5.5V28H22.5a.49967.49967,0,0,0-.5.5v1a.49967.49967,0,0,0,.5.5H28v5.5a.49967.49967,0,0,0,.5.5h1a.49967.49967,0,0,0,.5-.5V30h5.5a.49967.49967,0,0,0,.5-.5v-1a.49967.49967,0,0,0-.5-.5H30V22.5a.49967.49967,0,0,0-.5-.5Z" class="fill"/></g></svg>