<?xml version="1.0" encoding="UTF-8"?>
<svg xmlns="http://www.w3.org/2000/svg" onmouseup="{ if(window.parent.document.onmouseup) window.parent.document.onmouseup(arguments[0]);}" width="36" viewBox="0 0 36 36" id="S_Gradient_18_N_2x" height="36" data-name="S_Gradient_18_N@2x"><defs><style>
      .cls-1, .cls-10, .cls-11, .cls-12, .cls-13, .cls-2, .cls-3, .cls-4, .cls-5, .cls-6, .cls-7, .cls-8, .cls-9, .fill {
        fill: #6e6e6e;
      }

      .cls-1 {
        opacity: 0.9;
      }

      .cls-2 {
        opacity: 0.8;
      }

      .cls-3 {
        opacity: 0.7;
      }

      .cls-4 {
        opacity: 0.6;
      }

      .cls-5 {
        opacity: 0.5;
      }

      .cls-6 {
        opacity: 0.4;
      }

      .cls-7 {
        opacity: 0.25;
      }

      .cls-8 {
        opacity: 0.3;
      }

      .cls-9 {
        opacity: 0.35;
      }

      .cls-10 {
        opacity: 0.2;
      }

      .cls-11 {
        opacity: 0.15;
      }

      .cls-12 {
        opacity: 0.1;
      }

      .cls-13 {
        opacity: 0.05;
      }

      
    </style></defs><rect data-cppathid="10000" y="6" x="4" width="2" height="24" class="cls-1"/><rect data-cppathid="10001" y="6" x="6" width="2" height="24" class="cls-2"/><rect data-cppathid="10002" y="6" x="8" width="2" height="24" class="cls-3"/><rect data-cppathid="10003" y="6" x="10" width="2" height="24" class="cls-4"/><rect data-cppathid="10004" y="6" x="12" width="2" height="24" class="cls-5"/><rect data-cppathid="10005" y="6" x="14" width="2" height="24" class="cls-6"/><rect data-cppathid="10006" y="6" x="20" width="2" height="24" class="cls-7"/><rect data-cppathid="10007" y="6" x="18" width="2" height="24" class="cls-8"/><rect data-cppathid="10008" y="6" x="16" width="2" height="24" class="cls-9"/><rect data-cppathid="10009" y="6" x="22" width="2" height="24" class="cls-10"/><rect data-cppathid="10010" y="6" x="24" width="2" height="24" class="cls-11"/><rect data-cppathid="10011" y="6" x="26" width="2" height="24" class="cls-12"/><rect data-cppathid="10012" y="6" x="28" width="2" height="24" class="cls-13"/><path data-cppathid="10013" d="M2,5V31a1,1,0,0,0,1,1H33a1,1,0,0,0,1-1V5a1,1,0,0,0-1-1H3A1,1,0,0,0,2,5ZM32,30H4V6H32Z" class="fill"/></svg>